<svg xmlns="http://www.w3.org/2000/svg" width="17" height="17" viewBox="0 0 17 17">
  <g id="exclude-icon" transform="translate(0.079 0.082)">
    <path id="Path_4443" data-name="Path 4443" d="M15.285,4.5a6.511,6.511,0,0,0-2.946-2.946A7.934,7.934,0,0,0,1.558,12.336,6.509,6.509,0,0,0,4.5,15.282,7.934,7.934,0,0,0,15.285,4.5Zm.61-.3A8.613,8.613,0,0,1,4.2,15.891,7.189,7.189,0,0,1,.948,12.637,8.613,8.613,0,0,1,12.64.945,7.19,7.19,0,0,1,15.894,4.2Z" transform="translate(0 0)" fill="#ff0e0e"/>
    <path id="Path_4444" data-name="Path 4444" d="M225.575,232.292l6.719-6.719a.17.17,0,0,0,0-.241l-1.161-1.161a.17.17,0,0,0-.24,0l-6.719,6.719a.17.17,0,0,0,0,.24l1.161,1.161a.17.17,0,0,0,.24,0Zm-1.882-.68a.85.85,0,0,1,0-1.2l6.719-6.719a.85.85,0,0,1,1.2,0l1.161,1.161a.85.85,0,0,1,0,1.2l-6.719,6.719a.85.85,0,0,1-1.2,0Z" transform="translate(-219.813 -219.814)" fill="#ff0e0e"/>
  </g>
</svg>
