<svg id="rocket" xmlns="http://www.w3.org/2000/svg" width="24.876" height="36.531" viewBox="0 0 24.876 36.531">
  <path id="Shape" d="M24.392,31.53a1.271,1.271,0,0,0,1.285-1.285V27.614a9.238,9.238,0,0,0-2.882-6.736,16.057,16.057,0,0,0,.219-2.412c0-8.929-8.491-17.545-8.867-17.89a1.286,1.286,0,0,0-1.817,0c-.345.376-8.8,8.992-8.8,17.89a14.851,14.851,0,0,0,.188,2.35A9.407,9.407,0,0,0,.8,27.614v2.632A1.271,1.271,0,0,0,2.085,31.53a1.271,1.271,0,0,0,1.285-1.285V27.614a7.014,7.014,0,0,1,1.1-3.728A24.833,24.833,0,0,0,6,27.489a1.261,1.261,0,0,0,1.159.689h4.825v2.068a1.285,1.285,0,1,0,2.569,0V28.178H19.41a1.4,1.4,0,0,0,1.159-.689,22.6,22.6,0,0,0,1.5-3.54,6.853,6.853,0,0,1,1.065,3.666v2.632A1.244,1.244,0,0,0,24.392,31.53Zm-5.8-5.921H14.523V23.541a1.285,1.285,0,0,0-2.569,0v2.068H7.943a20.114,20.114,0,0,1-1.535-4.418.915.915,0,0,0-.063-.282,13.481,13.481,0,0,1-.251-2.444c0-6.2,5.044-12.657,7.143-15.07,2.13,2.412,7.206,8.835,7.206,15.07A16.91,16.91,0,0,1,18.6,25.609Z" transform="translate(-0.8 -0.2)" fill="#fff"/>
  <path id="Shape-2" data-name="Shape" d="M25.9,36.737A4.637,4.637,0,1,0,30.537,32.1,4.646,4.646,0,0,0,25.9,36.737ZM30.537,34.7a2.068,2.068,0,1,1-2.068,2.068A2.066,2.066,0,0,1,30.537,34.7Z" transform="translate(-18.036 -22.106)" fill="#f9f9f9"/>
  <path id="Shape-3" data-name="Shape" d="M16.269,100.477V96.185a1.285,1.285,0,0,0-2.569,0v4.292a1.285,1.285,0,0,0,2.569,0Z" transform="translate(-9.658 -65.23)" fill="#f9f9f9"/>
  <path id="Shape-4" data-name="Shape" d="M61.669,100.477V96.185a1.285,1.285,0,0,0-2.569,0v4.292a1.271,1.271,0,0,0,1.285,1.285A1.29,1.29,0,0,0,61.669,100.477Z" transform="translate(-40.834 -65.23)" fill="#f9f9f9"/>
</svg>
