<svg width="24" height="24" viewBox="0 0 24 24" fill="none" xmlns="http://www.w3.org/2000/svg">
<path d="M5.25 3C4.54275 3 3.813 3.26625 3.234 3.7725C2.6565 4.281 2.25 5.0625 2.25 6C2.25 6.7965 2.5845 7.4775 3 8.016C3.4155 8.553 3.9195 8.97975 4.383 9.39826C5.31 10.236 6 10.9238 6 12C6 12.114 5.8875 12.39 5.742 12.6098C5.5965 12.8273 5.46075 12.9608 5.46075 12.9608L6.54075 14.016C6.54075 14.016 6.77925 13.7745 7.00875 13.431C7.20375 13.1355 7.4175 12.7523 7.4775 12.2588C7.56225 12.5003 7.6425 12.7515 7.734 12.9848C8.2515 14.316 8.844 15.5085 9.516 16.407C9.75975 16.734 10.011 17.025 10.2885 17.274C8.73975 17.385 7.5 18.675 7.5 20.25V21H16.5V20.25C16.5 18.6578 15.2362 17.3603 13.665 17.2725C13.9587 17.0115 14.2251 16.7213 14.46 16.4063C15.135 15.5108 15.7215 14.3138 16.242 12.984C16.3395 12.735 16.4318 12.4688 16.5233 12.2115C16.5758 12.7268 16.791 13.1265 16.9928 13.4295C17.2222 13.7745 17.4615 14.016 17.4615 14.016L18.5415 12.9608C18.5415 12.9608 18.405 12.8288 18.2595 12.6098C18.1133 12.3923 18.0015 12.1148 18.0015 12.0008C18.0015 10.9238 18.6915 10.236 19.6185 9.39826C20.082 8.9805 20.586 8.55375 21.0015 8.01675C21.417 7.479 21.7515 6.79726 21.7515 6.00075C21.7515 5.06175 21.3465 4.281 20.7668 3.77325C20.2093 3.28141 19.4934 3.0069 18.75 3C18.0237 2.99871 17.3226 3.26582 16.7812 3.75H7.21875C6.67742 3.26582 5.97628 2.99871 5.25 3ZM5.25 4.5C5.6055 4.5 5.8335 4.6125 6 4.71C6.021 6.24 6.285 7.9755 6.7035 9.67951C6.3045 9.1395 5.805 8.6925 5.367 8.2965C4.893 7.869 4.4595 7.4745 4.17225 7.10175C3.8835 6.7275 3.75 6.4065 3.75 6C3.75 5.4765 3.954 5.151 4.242 4.8975C4.53 4.647 4.9245 4.5 5.25 4.5ZM18.75 4.5C19.0755 4.5 19.47 4.64625 19.758 4.8975C20.046 5.151 20.25 5.4765 20.25 6C20.25 6.40725 20.115 6.729 19.8278 7.1025C19.5405 7.4745 19.1077 7.86751 18.633 8.2965C18.183 8.7015 17.6775 9.16876 17.2733 9.72676C17.7052 8.00925 17.9782 6.26175 18.0007 4.70925C18.1672 4.61175 18.3953 4.49925 18.7507 4.49925L18.75 4.5ZM7.59375 5.25H16.4062C16.2915 7.479 15.7163 10.1985 14.8358 12.4455C14.3505 13.6883 13.788 14.7668 13.2428 15.492C12.6975 16.2173 12.198 16.5 11.9775 16.5C11.7563 16.5 11.2778 16.2195 10.734 15.492C10.191 14.7645 9.624 13.6898 9.141 12.4455C8.2665 10.1955 7.7085 7.46775 7.59375 5.25ZM11.25 7.5V11.25H12.75V7.5H11.25ZM10.5 18.75H13.5C14.0378 18.75 14.4075 19.0823 14.6722 19.5H9.3285C9.5925 19.0823 9.96225 18.75 10.5 18.75Z" fill="#828282"/>
</svg>
