<svg width="30" height="24" viewBox="0 0 30 24" fill="none" xmlns="http://www.w3.org/2000/svg">
<path d="M22.3437 19.35C22.6062 19.3501 22.8555 19.4315 23.0398 19.5731M22.3437 19.35L22.3437 19.25L23.0398 19.5731M22.3437 19.35H7.65789M22.3437 19.35H7.65789M23.0398 19.5731C23.2237 19.7144 23.3263 19.902 23.3362 20.0941C23.3461 20.286 23.2634 20.4784 23.0959 20.6301C22.9282 20.7821 22.6896 20.8794 22.4287 20.8971L22.3421 20.9H7.65632C7.39387 20.8998 7.14471 20.8183 6.96047 20.6767C6.7767 20.5354 6.67421 20.3478 6.66438 20.1557C6.65457 19.9639 6.73729 19.7715 6.90474 19.6198C7.07252 19.4679 7.31103 19.3705 7.57193 19.3529L7.65789 19.35M23.0398 19.5731L7.65789 19.35M14.1049 3.48266C14.2723 3.33734 14.5055 3.24486 14.7593 3.22789L14.8454 3.225C15.1001 3.22534 15.3426 3.30225 15.5253 3.43685C15.7072 3.57089 15.8141 3.74994 15.834 3.93584L15.8375 4.0026V14.6665V14.8745L15.9999 14.7446L18.9956 12.3486L18.9956 12.3486C19.1811 12.2002 19.4366 12.1142 19.7065 12.1142C19.9765 12.1142 20.232 12.2002 20.4175 12.3486C20.6025 12.4965 20.7004 12.6918 20.7004 12.8892C20.7004 13.0867 20.6025 13.282 20.4175 13.4299L15.5563 17.3189L15.6187 17.397L15.5563 17.3189C15.4646 17.3922 15.3547 17.4512 15.2324 17.4918C15.1101 17.5323 14.9785 17.5533 14.8453 17.5533C14.712 17.5533 14.5805 17.5323 14.4582 17.4918C14.3359 17.4512 14.226 17.3922 14.1343 17.3189L14.0719 17.397L14.1343 17.3189L9.27308 13.4299C9.08814 13.282 8.99024 13.0867 8.99024 12.8892C8.99024 12.6918 9.08814 12.4965 9.27308 12.3486C9.45861 12.2002 9.71414 12.1142 9.98405 12.1142C10.254 12.1142 10.5095 12.2002 10.695 12.3486L13.6875 14.7426L13.85 14.8726V14.6645V4.00001C13.85 4.00001 13.85 4 13.85 4C13.85 3.81302 13.9378 3.6278 14.1049 3.48266Z" fill="#828282" stroke="white" stroke-width="0.2"/>
</svg>
