<svg width="20" height="20" viewBox="0 0 20 20" fill="none" xmlns="http://www.w3.org/2000/svg">
<path d="M1.66663 4.99996C1.66663 4.1159 2.01782 3.26806 2.64294 2.64294C3.26806 2.01782 4.1159 1.66663 4.99996 1.66663H15C15.884 1.66663 16.7319 2.01782 17.357 2.64294C17.9821 3.26806 18.3333 4.1159 18.3333 4.99996V15C18.3333 15.884 17.9821 16.7319 17.357 17.357C16.7319 17.9821 15.884 18.3333 15 18.3333H4.99996C4.1159 18.3333 3.26806 17.9821 2.64294 17.357C2.01782 16.7319 1.66663 15.884 1.66663 15V4.99996Z" stroke="#828282" stroke-width="1.5" stroke-linecap="round" stroke-linejoin="round"/>
<path d="M7.08333 9.16667C8.23393 9.16667 9.16667 8.23393 9.16667 7.08333C9.16667 5.93274 8.23393 5 7.08333 5C5.93274 5 5 5.93274 5 7.08333C5 8.23393 5.93274 9.16667 7.08333 9.16667Z" stroke="#828282" stroke-width="1.5" stroke-linecap="round" stroke-linejoin="round"/>
<path d="M12.105 10.5175L5 18.3333H15.1108C15.9655 18.3333 16.7851 17.9938 17.3895 17.3894C17.9938 16.7851 18.3333 15.9655 18.3333 15.1108V15C18.3333 14.6116 18.1875 14.4625 17.925 14.175L14.5667 10.5125C14.4101 10.3417 14.2198 10.2055 14.0076 10.1124C13.7955 10.0194 13.5664 9.97158 13.3347 9.97205C13.1031 9.97252 12.8741 10.0213 12.6624 10.1152C12.4507 10.2091 12.2608 10.3461 12.105 10.5175V10.5175Z" stroke="#828282" stroke-width="1.5" stroke-linecap="round" stroke-linejoin="round"/>
</svg>
