<svg width="22" height="22" viewBox="0 0 22 22" fill="none" xmlns="http://www.w3.org/2000/svg">
<path d="M10.9542 16.5C11.275 16.5 11.5464 16.3891 11.7682 16.1673C11.9894 15.9461 12.1 15.675 12.1 15.3542C12.1 15.0334 11.9894 14.7623 11.7682 14.5411C11.5464 14.3193 11.275 14.2084 10.9542 14.2084C10.6334 14.2084 10.362 14.3193 10.1402 14.5411C9.91899 14.7623 9.80837 15.0334 9.80837 15.3542C9.80837 15.675 9.91899 15.9461 10.1402 16.1673C10.362 16.3891 10.6334 16.5 10.9542 16.5ZM11.0917 7.05837C11.5195 7.05837 11.8632 7.17662 12.123 7.41312C12.3827 7.65024 12.5125 7.95976 12.5125 8.34171C12.5125 8.60143 12.4248 8.86482 12.2495 9.13187C12.0735 9.39954 11.825 9.67851 11.5042 9.96879C11.0459 10.366 10.7098 10.748 10.4959 11.1146C10.282 11.4813 10.175 11.848 10.175 12.2146C10.175 12.4285 10.2554 12.6079 10.4161 12.7527C10.5762 12.8982 10.7632 12.9709 10.9771 12.9709C11.191 12.9709 11.382 12.8945 11.55 12.7417C11.7181 12.5889 11.825 12.398 11.8709 12.1688C11.9167 11.9091 12.02 11.6686 12.1807 11.4474C12.3408 11.2255 12.6042 10.9389 12.9709 10.5875C13.4445 10.1445 13.7769 9.73962 13.9682 9.37296C14.1589 9.00629 14.2542 8.60143 14.2542 8.15837C14.2542 7.37921 13.9603 6.74121 13.3724 6.24437C12.7839 5.74815 12.0237 5.50004 11.0917 5.50004C10.45 5.50004 9.8811 5.62226 9.38487 5.86671C8.88804 6.11115 8.50212 6.48546 8.22712 6.98962C8.12018 7.18824 8.08199 7.38287 8.11254 7.57354C8.1431 7.76482 8.25004 7.92157 8.43337 8.04379C8.63199 8.16601 8.84985 8.20421 9.08696 8.15837C9.32346 8.11254 9.5181 7.98268 9.67087 7.76879C9.83893 7.53962 10.0415 7.36393 10.2786 7.24171C10.5151 7.11949 10.7862 7.05837 11.0917 7.05837ZM11 20.1667C9.74726 20.1667 8.56324 19.9259 7.44796 19.4444C6.33268 18.9634 5.35887 18.3105 4.52654 17.4855C3.6936 16.6605 3.03665 15.6903 2.55571 14.575C2.07415 13.4598 1.83337 12.2681 1.83337 11C1.83337 9.73199 2.07415 8.54032 2.55571 7.42504C3.03665 6.30976 3.6936 5.33962 4.52654 4.51462C5.35887 3.68962 6.33268 3.03635 7.44796 2.55479C8.56324 2.07385 9.74726 1.83337 11 1.83337C12.2834 1.83337 13.4827 2.07385 14.598 2.55479C15.7132 3.03635 16.6834 3.68962 17.5084 4.51462C18.3334 5.33962 18.9827 6.30976 19.4563 7.42504C19.9299 8.54032 20.1667 9.73199 20.1667 11C20.1667 12.2681 19.9299 13.4598 19.4563 14.575C18.9827 15.6903 18.3334 16.6605 17.5084 17.4855C16.6834 18.3105 15.7132 18.9634 14.598 19.4444C13.4827 19.9259 12.2834 20.1667 11 20.1667ZM11 18.3334C13.0473 18.3334 14.7813 17.6193 16.2021 16.1911C17.623 14.7623 18.3334 13.032 18.3334 11C18.3334 8.9681 17.623 7.23774 16.2021 5.80896C14.7813 4.38079 13.0473 3.66671 11 3.66671C8.99865 3.66671 7.27593 4.38079 5.83187 5.80896C4.38843 7.23774 3.66671 8.9681 3.66671 11C3.66671 13.032 4.38843 14.7623 5.83187 16.1911C7.27593 17.6193 8.99865 18.3334 11 18.3334Z" fill="#828282"/>
</svg>
