<svg width="24" height="24" viewBox="0 0 24 24" fill="none" xmlns="http://www.w3.org/2000/svg">
<path d="M15.1861 0.927627C14.9949 0.664414 14.7489 0.445795 14.4651 0.286843C14.1812 0.12789 13.8663 0.0323841 13.5419 0.00690902C13.2176 -0.018566 12.8916 0.0265957 12.5864 0.139281C12.2812 0.251966 12.0041 0.429494 11.7741 0.659627L8.31014 4.12463C8.07472 4.35995 7.89445 4.64458 7.78232 4.958C7.6702 5.27141 7.629 5.6058 7.66172 5.93705C7.69443 6.26831 7.80024 6.58818 7.97151 6.8736C8.14277 7.15903 8.37524 7.4029 8.65214 7.58763L10.6621 8.92663L3.78914 15.6696C3.54529 15.8993 3.34988 16.1754 3.21441 16.4818C3.07895 16.7881 3.00617 17.1185 3.00038 17.4534C2.99458 17.7883 3.05588 18.121 3.18066 18.4319C3.30544 18.7427 3.49118 19.0255 3.72693 19.2634C3.96268 19.5014 4.24368 19.6897 4.55336 19.8174C4.86304 19.9451 5.19515 20.0095 5.5301 20.0068C5.86506 20.0041 6.19609 19.9344 6.50369 19.8018C6.81129 19.6692 7.08923 19.4763 7.32114 19.2346L14.1931 12.3626L15.4091 14.2726C15.5899 14.5571 15.8323 14.7973 16.1184 14.9755C16.4045 15.1537 16.727 15.2654 17.062 15.3022C17.397 15.3391 17.736 15.3002 18.054 15.1885C18.372 15.0767 18.6608 14.895 18.8991 14.6566L22.3351 11.2206C22.5651 10.9907 22.7425 10.7136 22.8551 10.4085C22.9676 10.1034 23.0127 9.77756 22.9873 9.45336C22.9618 9.12916 22.8664 8.81433 22.7075 8.53057C22.5487 8.2468 22.3302 8.00084 22.0671 7.80963L18.1791 4.98163C18.1154 4.93535 18.0594 4.87933 18.0131 4.81563L15.1861 0.927627ZM12.8361 1.71963C12.9128 1.64319 13.0052 1.58425 13.1068 1.54689C13.2084 1.50952 13.3169 1.49459 13.4249 1.50315C13.5328 1.5117 13.6376 1.54352 13.7321 1.59642C13.8266 1.64933 13.9084 1.72206 13.9721 1.80963L14.4321 2.44163L10.1141 6.75763L9.48414 6.33763C9.3919 6.27605 9.31446 6.19477 9.25741 6.09966C9.20035 6.00455 9.16511 5.89796 9.1542 5.78759C9.1433 5.67722 9.15701 5.5658 9.19435 5.46136C9.23169 5.35692 9.29173 5.26207 9.37014 5.18363L12.8351 1.71863L12.8361 1.71963ZM11.3861 7.60763L15.3251 3.66963L16.8001 5.69763C16.9391 5.88763 17.1061 6.05563 17.2961 6.19463L19.2561 7.61763L15.4041 11.4686L14.3501 9.81163C14.182 9.54748 13.9606 9.32132 13.7001 9.14763L11.3861 7.60763ZM16.2281 12.7666L20.4831 8.51163L21.1851 9.02163C21.273 9.08531 21.3461 9.1673 21.3992 9.26195C21.4523 9.3566 21.4842 9.46166 21.4928 9.56986C21.5013 9.67805 21.4863 9.78682 21.4487 9.88865C21.4112 9.99047 21.3519 10.0829 21.2751 10.1596L17.8381 13.5956C17.7588 13.6751 17.6626 13.7357 17.5567 13.7729C17.4507 13.8102 17.3378 13.8233 17.2262 13.8111C17.1146 13.7989 17.0071 13.7618 16.9117 13.7025C16.8163 13.6432 16.7355 13.5633 16.6751 13.4686L16.2281 12.7666ZM13.3681 11.0666L6.26014 18.1746C6.16711 18.2732 6.05519 18.3521 5.93105 18.4065C5.80691 18.4609 5.67309 18.4898 5.53755 18.4914C5.40202 18.493 5.26755 18.4673 5.14215 18.4158C5.01676 18.3644 4.903 18.2882 4.80766 18.1918C4.71232 18.0955 4.63735 17.981 4.58722 17.855C4.53708 17.7291 4.5128 17.5944 4.51583 17.4588C4.51886 17.3233 4.54914 17.1898 4.60486 17.0663C4.66057 16.9427 4.74059 16.8316 4.84014 16.7396L11.9361 9.77663L12.8661 10.3966C12.9532 10.4547 13.0271 10.5303 13.0831 10.6186L13.3681 11.0656V11.0666ZM15.7961 16.9476C15.5972 16.9476 15.4065 17.0266 15.2658 17.1673C15.1252 17.3079 15.0461 17.4987 15.0461 17.6976C15.0461 17.8965 15.1252 18.0873 15.2658 18.228C15.4065 18.3686 15.5972 18.4476 15.7961 18.4476H13.7961C13.5972 18.4476 13.4065 18.5266 13.2658 18.6673C13.1252 18.8079 13.0461 18.9987 13.0461 19.1976C13.0461 19.3965 13.1252 19.5873 13.2658 19.728C13.4065 19.8686 13.5972 19.9476 13.7961 19.9476H22.2961C22.4951 19.9476 22.6858 19.8686 22.8265 19.728C22.9671 19.5873 23.0461 19.3965 23.0461 19.1976C23.0461 18.9987 22.9671 18.8079 22.8265 18.6673C22.6858 18.5266 22.4951 18.4476 22.2961 18.4476H20.2961C20.4951 18.4476 20.6858 18.3686 20.8265 18.228C20.9671 18.0873 21.0461 17.8965 21.0461 17.6976C21.0461 17.4987 20.9671 17.3079 20.8265 17.1673C20.6858 17.0266 20.4951 16.9476 20.2961 16.9476H15.7961Z" fill="#828282"/>
</svg>
