<svg width="20" height="20" viewBox="0 0 20 20" fill="none" xmlns="http://www.w3.org/2000/svg">
<path d="M10 19C14.9706 19 19 14.9706 19 10C19 5.02944 14.9706 1 10 1C5.02944 1 1 5.02944 1 10C1 14.9706 5.02944 19 10 19Z" stroke="white" stroke-width="1.5" stroke-linecap="round" stroke-linejoin="round"/>
<path d="M10 1C9.46957 1 8.96086 1.21071 8.58579 1.58579C8.21071 1.96086 8 2.46957 8 3C8 3.53043 8.21071 4.03914 8.58579 4.41421C8.96086 4.78929 9.46957 5 10 5M7 8H7.01H7ZM13 8H13.01H13ZM7.5 13C7.82588 13.3326 8.21485 13.5968 8.64413 13.7772C9.07341 13.9576 9.53436 14.0505 10 14.0505C10.4656 14.0505 10.9266 13.9576 11.3559 13.7772C11.7852 13.5968 12.1741 13.3326 12.5 13H7.5Z" stroke="white" stroke-width="1.5" stroke-linecap="round" stroke-linejoin="round"/>
</svg>
