<svg width="18" height="18" viewBox="0 0 18 18" fill="none" xmlns="http://www.w3.org/2000/svg">
<g clip-path="url(#clip0_84_1651)">
<path d="M12.6 17.388V17.988H13.2V17.388H12.6ZM0.6 17.388H0V17.988H0.6V17.388ZM17.4 17.4V18H18V17.4H17.4ZM9.6 4.1976C9.59984 4.59141 9.52212 4.98133 9.37127 5.3451C9.22042 5.70887 8.9994 6.03937 8.72082 6.31772C8.44225 6.59607 8.11157 6.81683 7.74768 6.96739C7.38379 7.11795 6.99381 7.19536 6.6 7.1952V8.3952C8.9196 8.3952 10.8 6.516 10.8 4.1976H9.6ZM6.6 7.1952C6.20619 7.19536 5.81621 7.11795 5.45232 6.96739C5.08843 6.81683 4.75775 6.59607 4.47918 6.31772C4.2006 6.03937 3.97958 5.70887 3.82873 5.3451C3.67788 4.98133 3.60016 4.59141 3.6 4.1976H2.4C2.40016 4.74899 2.50892 5.29496 2.72007 5.80432C2.93123 6.31368 3.24064 6.77647 3.63065 7.16625C4.02065 7.55603 4.48362 7.86518 4.9931 8.07604C5.50258 8.28691 6.04861 8.39536 6.6 8.3952V7.1952ZM3.6 4.1976C3.60016 3.80379 3.67788 3.41387 3.82873 3.0501C3.97958 2.68633 4.2006 2.35583 4.47918 2.07748C4.75775 1.79913 5.08843 1.57837 5.45232 1.42781C5.81621 1.27725 6.20619 1.19984 6.6 1.2V1.71542e-07C6.04861 -0.000157437 5.50258 0.108292 4.9931 0.319156C4.48362 0.530019 4.02065 0.839168 3.63065 1.22895C3.24064 1.61873 2.93123 2.08152 2.72007 2.59088C2.50892 3.10024 2.40016 3.64621 2.4 4.1976H3.6ZM6.6 1.2C7.39523 1.2 8.15793 1.51574 8.72047 2.07783C9.28301 2.63992 9.59936 3.40237 9.6 4.1976H10.8C10.7998 3.64621 10.6911 3.10024 10.4799 2.59088C10.2688 2.08152 9.95936 1.61873 9.56935 1.22895C9.17935 0.839168 8.71639 0.530019 8.2069 0.319156C7.69742 0.108292 7.15139 -0.000157437 6.6 1.71542e-07V1.2ZM12.6 16.788H0.6V17.988H12.6V16.788ZM1.2 17.388V14.994H0V17.388H1.2V17.388ZM4.2 11.9928H9V10.7928H4.2V11.9928ZM12 14.9928V17.388H13.2V14.9928H12ZM9 11.9928C9.79565 11.9928 10.5587 12.3089 11.1213 12.8715C11.6839 13.4341 12 14.1972 12 14.9928H13.2C13.2 13.8789 12.7575 12.8106 11.9698 12.023C11.1822 11.2353 10.1139 10.7928 9 10.7928V11.9928ZM1.2 14.9928C1.2 14.1972 1.51607 13.4341 2.07868 12.8715C2.64129 12.3089 3.40435 11.9928 4.2 11.9928V10.7928C3.08609 10.7928 2.0178 11.2353 1.23015 12.023C0.442499 12.8106 0 13.8789 0 14.9928H1.2ZM16.8 15.6V17.4H18V15.6H16.8ZM17.4 16.8H14.4V18H17.4V16.8ZM14.4 13.2C15.0365 13.2 15.647 13.4529 16.0971 13.9029C16.5471 14.353 16.8 14.9635 16.8 15.6H18C18 14.6452 17.6207 13.7295 16.9456 13.0544C16.2705 12.3793 15.3548 12 14.4 12V13.2ZM13.8 9.6C13.3226 9.6 12.8648 9.41036 12.5272 9.07279C12.1896 8.73523 12 8.27739 12 7.8H10.8C10.8 8.59565 11.1161 9.35871 11.6787 9.92132C12.2413 10.4839 13.0044 10.8 13.8 10.8V9.6ZM15.6 7.8C15.6 8.27739 15.4104 8.73523 15.0728 9.07279C14.7352 9.41036 14.2774 9.6 13.8 9.6V10.8C14.5957 10.8 15.3587 10.4839 15.9213 9.92132C16.4839 9.35871 16.8 8.59565 16.8 7.8H15.6ZM13.8 6C14.2774 6 14.7352 6.18964 15.0728 6.52721C15.4104 6.86477 15.6 7.32261 15.6 7.8H16.8C16.8 7.00435 16.4839 6.24129 15.9213 5.67868C15.3587 5.11607 14.5957 4.8 13.8 4.8V6ZM13.8 4.8C13.0044 4.8 12.2413 5.11607 11.6787 5.67868C11.1161 6.24129 10.8 7.00435 10.8 7.8H12C12 7.32261 12.1896 6.86477 12.5272 6.52721C12.8648 6.18964 13.3226 6 13.8 6V4.8Z" fill="#828282"/>
</g>
<defs>
<clipPath id="clip0_84_1651">
<rect width="18" height="18" fill="white"/>
</clipPath>
</defs>
</svg>
