<svg width="24" height="24" viewBox="0 0 24 24" fill="none" xmlns="http://www.w3.org/2000/svg">
<mask id="path-1-inside-1_84_1631" fill="white">
<path d="M12.0667 7.33331C9.46669 7.33331 7.40002 9.39998 7.40002 12C7.40002 14.6 9.46669 16.6666 12.0667 16.6666C14.6667 16.6666 16.7334 14.6 16.7334 12C16.7334 9.39998 14.6667 7.33331 12.0667 7.33331ZM12.0667 15.3333C10.2 15.3333 8.73336 13.8666 8.73336 12C8.73336 10.1333 10.2 8.66665 12.0667 8.66665C13.9334 8.66665 15.4 10.1333 15.4 12C15.4 13.8666 13.9334 15.3333 12.0667 15.3333Z"/>
</mask>
<path d="M12.0667 7.33331C9.46669 7.33331 7.40002 9.39998 7.40002 12C7.40002 14.6 9.46669 16.6666 12.0667 16.6666C14.6667 16.6666 16.7334 14.6 16.7334 12C16.7334 9.39998 14.6667 7.33331 12.0667 7.33331ZM12.0667 15.3333C10.2 15.3333 8.73336 13.8666 8.73336 12C8.73336 10.1333 10.2 8.66665 12.0667 8.66665C13.9334 8.66665 15.4 10.1333 15.4 12C15.4 13.8666 13.9334 15.3333 12.0667 15.3333Z" fill="#828282"/>
<path d="M12.0667 5.83331C8.63826 5.83331 5.90002 8.57155 5.90002 12H8.90002C8.90002 10.2284 10.2951 8.83331 12.0667 8.83331V5.83331ZM5.90002 12C5.90002 15.4284 8.63826 18.1666 12.0667 18.1666V15.1666C10.2951 15.1666 8.90002 13.7716 8.90002 12H5.90002ZM12.0667 18.1666C15.4951 18.1666 18.2334 15.4284 18.2334 12H15.2334C15.2334 13.7716 13.8383 15.1666 12.0667 15.1666V18.1666ZM18.2334 12C18.2334 8.57155 15.4951 5.83331 12.0667 5.83331V8.83331C13.8383 8.83331 15.2334 10.2284 15.2334 12H18.2334ZM12.0667 13.8333C11.0285 13.8333 10.2334 13.0382 10.2334 12H7.23336C7.23336 14.6951 9.3716 16.8333 12.0667 16.8333V13.8333ZM10.2334 12C10.2334 10.9617 11.0285 10.1666 12.0667 10.1666V7.16665C9.3716 7.16665 7.23336 9.30489 7.23336 12H10.2334ZM12.0667 10.1666C13.1049 10.1666 13.9 10.9617 13.9 12H16.9C16.9 9.30489 14.7618 7.16665 12.0667 7.16665V10.1666ZM13.9 12C13.9 13.0382 13.1049 13.8333 12.0667 13.8333V16.8333C14.7618 16.8333 16.9 14.6951 16.9 12H13.9Z" fill="#828282" mask="url(#path-1-inside-1_84_1631)"/>
<mask id="path-3-inside-2_84_1631" fill="white">
<path d="M21.8667 9.79998L20 9.19998L19.6 8.19998L20.5334 6.46665C20.7334 6.06665 20.6667 5.53331 20.3334 5.19998L18.7334 3.59998C18.4 3.26665 17.8667 3.19998 17.4667 3.39998L15.7334 4.33331L14.7334 3.93331L14.1334 2.06665C14 1.66665 13.6 1.33331 13.1334 1.33331H10.8667C10.4 1.33331 10 1.66665 9.93337 2.13331L9.33337 3.99998C8.93337 4.06665 8.60004 4.19998 8.26671 4.39998L6.53337 3.46665C6.13337 3.26665 5.60004 3.33331 5.26671 3.66665L3.66671 5.26665C3.33337 5.59998 3.26671 6.13331 3.46671 6.53331L4.33337 8.19998C4.20004 8.53331 4.06671 8.93331 3.93337 9.26665L2.06671 9.86665C1.66671 9.99998 1.33337 10.4 1.33337 10.8666V13.1333C1.33337 13.6 1.66671 14 2.13337 14.1333L4.00004 14.7333L4.40004 15.7333L3.46671 17.4666C3.26671 17.8666 3.33337 18.4 3.66671 18.7333L5.26671 20.3333C5.60004 20.6666 6.13337 20.7333 6.53337 20.5333L8.26671 19.6L9.26671 20L9.86671 21.9333C10 22.3333 10.4 22.6666 10.8667 22.6666H13.1334C13.6 22.6666 14 22.3333 14.1334 21.9333L14.7334 20L15.7334 19.6L17.4667 20.5333C17.8667 20.7333 18.4 20.6666 18.7334 20.3333L20.3334 18.7333C20.6667 18.4 20.7334 17.8666 20.5334 17.4666L19.6 15.7333L20 14.7333L21.9334 14.1333C22.3334 14 22.6667 13.6 22.6667 13.1333V10.8666C22.6667 10.4 22.3334 9.93331 21.8667 9.79998ZM21.3334 12.9333L18.9334 13.6666L18.8667 14L18.2667 15.4L18.0667 15.7333L19.2667 17.9333L17.9334 19.2666L15.7334 18.0666L15.4 18.2666C14.9334 18.5333 14.4667 18.7333 14 18.8666L13.6667 18.9333L12.9334 21.3333H11.0667L10.3334 18.9333L10 18.8666L8.60004 18.2666L8.26671 18.0666L6.06671 19.2666L4.73337 17.9333L5.93337 15.7333L5.73337 15.4C5.46671 14.9333 5.26671 14.4666 5.13337 14L5.06671 13.6666L2.66671 12.9333V11.0666L4.93337 10.4L5.06671 10.0666C5.20004 9.53331 5.40004 9.06665 5.66671 8.59998L5.86671 8.26665L4.73337 6.06665L6.06671 4.73331L8.20004 5.93331L8.53337 5.73331C9.00004 5.46665 9.46671 5.26665 10 5.13331L10.3334 4.99998L11.0667 2.66665H12.9334L13.6667 4.99998L14 5.13331C14.4667 5.26665 14.9334 5.46665 15.4 5.73331L15.7334 5.93331L17.9334 4.73331L19.2667 6.06665L18.0667 8.26665L18.2667 8.59998C18.5334 9.06665 18.7334 9.53331 18.8667 9.99998L18.9334 10.3333L21.3334 11.0666V12.9333Z"/>
</mask>
<path d="M21.8667 9.79998L20 9.19998L19.6 8.19998L20.5334 6.46665C20.7334 6.06665 20.6667 5.53331 20.3334 5.19998L18.7334 3.59998C18.4 3.26665 17.8667 3.19998 17.4667 3.39998L15.7334 4.33331L14.7334 3.93331L14.1334 2.06665C14 1.66665 13.6 1.33331 13.1334 1.33331H10.8667C10.4 1.33331 10 1.66665 9.93337 2.13331L9.33337 3.99998C8.93337 4.06665 8.60004 4.19998 8.26671 4.39998L6.53337 3.46665C6.13337 3.26665 5.60004 3.33331 5.26671 3.66665L3.66671 5.26665C3.33337 5.59998 3.26671 6.13331 3.46671 6.53331L4.33337 8.19998C4.20004 8.53331 4.06671 8.93331 3.93337 9.26665L2.06671 9.86665C1.66671 9.99998 1.33337 10.4 1.33337 10.8666V13.1333C1.33337 13.6 1.66671 14 2.13337 14.1333L4.00004 14.7333L4.40004 15.7333L3.46671 17.4666C3.26671 17.8666 3.33337 18.4 3.66671 18.7333L5.26671 20.3333C5.60004 20.6666 6.13337 20.7333 6.53337 20.5333L8.26671 19.6L9.26671 20L9.86671 21.9333C10 22.3333 10.4 22.6666 10.8667 22.6666H13.1334C13.6 22.6666 14 22.3333 14.1334 21.9333L14.7334 20L15.7334 19.6L17.4667 20.5333C17.8667 20.7333 18.4 20.6666 18.7334 20.3333L20.3334 18.7333C20.6667 18.4 20.7334 17.8666 20.5334 17.4666L19.6 15.7333L20 14.7333L21.9334 14.1333C22.3334 14 22.6667 13.6 22.6667 13.1333V10.8666C22.6667 10.4 22.3334 9.93331 21.8667 9.79998ZM21.3334 12.9333L18.9334 13.6666L18.8667 14L18.2667 15.4L18.0667 15.7333L19.2667 17.9333L17.9334 19.2666L15.7334 18.0666L15.4 18.2666C14.9334 18.5333 14.4667 18.7333 14 18.8666L13.6667 18.9333L12.9334 21.3333H11.0667L10.3334 18.9333L10 18.8666L8.60004 18.2666L8.26671 18.0666L6.06671 19.2666L4.73337 17.9333L5.93337 15.7333L5.73337 15.4C5.46671 14.9333 5.26671 14.4666 5.13337 14L5.06671 13.6666L2.66671 12.9333V11.0666L4.93337 10.4L5.06671 10.0666C5.20004 9.53331 5.40004 9.06665 5.66671 8.59998L5.86671 8.26665L4.73337 6.06665L6.06671 4.73331L8.20004 5.93331L8.53337 5.73331C9.00004 5.46665 9.46671 5.26665 10 5.13331L10.3334 4.99998L11.0667 2.66665H12.9334L13.6667 4.99998L14 5.13331C14.4667 5.26665 14.9334 5.46665 15.4 5.73331L15.7334 5.93331L17.9334 4.73331L19.2667 6.06665L18.0667 8.26665L18.2667 8.59998C18.5334 9.06665 18.7334 9.53331 18.8667 9.99998L18.9334 10.3333L21.3334 11.0666V12.9333Z" fill="#828282"/>
<path d="M20 9.19998L18.6073 9.75707L18.8694 10.4121L19.541 10.628L20 9.19998ZM19.6 8.19998L18.2793 7.48883L17.9469 8.10612L18.2073 8.75707L19.6 8.19998ZM20.5334 6.46665L21.8541 7.1778L21.8649 7.15779L21.875 7.13747L20.5334 6.46665ZM20.3334 5.19998L19.2727 6.26064L19.2727 6.26064L20.3334 5.19998ZM18.7334 3.59998L19.794 2.53932L19.794 2.53932L18.7334 3.59998ZM17.4667 3.39998L16.7959 2.05834L16.7756 2.0685L16.7556 2.07927L17.4667 3.39998ZM15.7334 4.33331L15.1763 5.72603L15.8272 5.98641L16.4445 5.65402L15.7334 4.33331ZM14.7334 3.93331L13.3053 4.39233L13.5212 5.064L14.1763 5.32603L14.7334 3.93331ZM14.1334 2.06665L15.5614 1.60763L15.5589 1.59996L15.5564 1.5923L14.1334 2.06665ZM9.93337 2.13331L11.3614 2.59233L11.4003 2.4713L11.4183 2.34545L9.93337 2.13331ZM9.33337 3.99998L9.57997 5.47957L10.4817 5.32929L10.7614 4.45899L9.33337 3.99998ZM8.26671 4.39998L7.55556 5.72069L8.30681 6.12521L9.03845 5.68622L8.26671 4.39998ZM6.53337 3.46665L7.24452 2.14594L7.22452 2.13517L7.20419 2.12501L6.53337 3.46665ZM3.46671 6.53331L2.12507 7.20413L2.13039 7.21478L2.13588 7.22534L3.46671 6.53331ZM4.33337 8.19998L5.72609 8.75707L5.98159 8.11832L5.6642 7.50795L4.33337 8.19998ZM3.93337 9.26665L4.39239 10.6947L5.06406 10.4788L5.32609 9.82373L3.93337 9.26665ZM2.06671 9.86665L1.60769 8.4386L1.60002 8.44107L1.59237 8.44362L2.06671 9.86665ZM2.13337 14.1333L2.59239 12.7053L2.56904 12.6978L2.54546 12.691L2.13337 14.1333ZM4.00004 14.7333L5.39276 14.1762L5.13073 13.5212L4.45905 13.3053L4.00004 14.7333ZM4.40004 15.7333L5.72075 16.4445L6.05313 15.8272L5.79276 15.1762L4.40004 15.7333ZM3.46671 17.4666L2.146 16.7555L2.13523 16.7755L2.12507 16.7958L3.46671 17.4666ZM3.66671 18.7333L2.60605 19.794L2.60605 19.794L3.66671 18.7333ZM5.26671 20.3333L6.32737 19.2727L6.32737 19.2726L5.26671 20.3333ZM6.53337 20.5333L7.20419 21.875L7.22452 21.8648L7.24452 21.854L6.53337 20.5333ZM8.26671 19.6L8.82379 18.2073L8.17285 17.9469L7.55556 18.2793L8.26671 19.6ZM9.26671 20L10.6993 19.5554L10.4874 18.8727L9.82379 18.6073L9.26671 20ZM9.86671 21.9333L8.43411 22.3779L8.43874 22.3928L8.44368 22.4077L9.86671 21.9333ZM14.1334 21.9333L15.5564 22.4077L15.5613 22.3928L15.566 22.3779L14.1334 21.9333ZM14.7334 20L14.1763 18.6073L13.5126 18.8727L13.3008 19.5554L14.7334 20ZM15.7334 19.6L16.4445 18.2793L15.8272 17.9469L15.1763 18.2073L15.7334 19.6ZM17.4667 20.5333L16.7556 21.854L16.7756 21.8648L16.7959 21.875L17.4667 20.5333ZM20.5334 17.4666L21.875 16.7958L21.8649 16.7755L21.8541 16.7555L20.5334 17.4666ZM19.6 15.7333L18.2073 15.1762L17.9469 15.8272L18.2793 16.4445L19.6 15.7333ZM20 14.7333L19.5554 13.3007L18.8728 13.5126L18.6073 14.1762L20 14.7333ZM21.9334 14.1333L22.378 15.5659L22.3929 15.5613L22.4077 15.5563L21.9334 14.1333ZM18.9334 13.6666L18.495 12.2321L17.6382 12.4939L17.4625 13.3725L18.9334 13.6666ZM18.8667 14L20.2454 14.5909L20.3069 14.4473L20.3376 14.2942L18.8667 14ZM18.2667 15.4L19.5529 16.1717L19.6053 16.0844L19.6454 15.9909L18.2667 15.4ZM18.0667 15.7333L16.7805 14.9616L16.3387 15.6978L16.7499 16.4516L18.0667 15.7333ZM19.2667 17.9333L20.3274 18.994L21.121 18.2003L20.5835 17.215L19.2667 17.9333ZM17.9334 19.2666L17.2151 20.5835L18.2004 21.1209L18.994 20.3273L17.9334 19.2666ZM15.7334 18.0666L16.4517 16.7498L15.6979 16.3387L14.9616 16.7804L15.7334 18.0666ZM15.4 18.2666L16.1442 19.569L16.1581 19.5611L16.1718 19.5529L15.4 18.2666ZM14 18.8666L14.2942 20.3375L14.3537 20.3256L14.4121 20.3089L14 18.8666ZM13.6667 18.9333L13.3725 17.4624L12.494 17.6382L12.2322 18.495L13.6667 18.9333ZM12.9334 21.3333V22.8333H14.0435L14.3679 21.7716L12.9334 21.3333ZM11.0667 21.3333L9.63218 21.7716L9.95658 22.8333H11.0667V21.3333ZM10.3334 18.9333L11.7679 18.495L11.5061 17.6382L10.6276 17.4624L10.3334 18.9333ZM10 18.8666L9.40916 20.2454L9.55271 20.3069L9.70586 20.3375L10 18.8666ZM8.60004 18.2666L7.82829 19.5529L7.91559 19.6053L8.00916 19.6454L8.60004 18.2666ZM8.26671 18.0666L9.03845 16.7804L8.3022 16.3387L7.54843 16.7498L8.26671 18.0666ZM6.06671 19.2666L5.00605 20.3273L5.79967 21.1209L6.78499 20.5835L6.06671 19.2666ZM4.73337 17.9333L3.41653 17.215L2.87909 18.2003L3.67271 18.994L4.73337 17.9333ZM5.93337 15.7333L7.25022 16.4516L7.66136 15.6978L7.21961 14.9616L5.93337 15.7333ZM5.73337 15.4L4.43101 16.1442L4.43892 16.158L4.44713 16.1717L5.73337 15.4ZM5.13337 14L3.6625 14.2942L3.67441 14.3537L3.69109 14.4121L5.13337 14ZM5.06671 13.6666L6.53758 13.3725L6.36187 12.4939L5.50503 12.2321L5.06671 13.6666ZM2.66671 12.9333H1.16671V14.0434L2.22838 14.3678L2.66671 12.9333ZM2.66671 11.0666L2.24346 9.6276L1.16671 9.94429V11.0666H2.66671ZM4.93337 10.4L5.35662 11.839L6.05553 11.6335L6.32609 10.9571L4.93337 10.4ZM5.06671 10.0666L6.45942 10.6237L6.49723 10.5292L6.52192 10.4304L5.06671 10.0666ZM5.66671 8.59998L4.38047 7.82823L4.37226 7.84192L4.36434 7.85577L5.66671 8.59998ZM5.86671 8.26665L7.15295 9.03839L7.58266 8.3222L7.20017 7.57971L5.86671 8.26665ZM4.73337 6.06665L3.67271 5.00599L2.89848 5.78022L3.39991 6.75358L4.73337 6.06665ZM6.06671 4.73331L6.8021 3.42595L5.81052 2.86818L5.00605 3.67265L6.06671 4.73331ZM8.20004 5.93331L7.46465 7.24068L8.22435 7.66801L8.97178 7.21955L8.20004 5.93331ZM8.53337 5.73331L7.78917 4.43095L7.77531 4.43886L7.76163 4.44707L8.53337 5.73331ZM10 5.13331L10.3638 6.58853L10.4626 6.56384L10.5571 6.52603L10 5.13331ZM10.3334 4.99998L10.8905 6.39269L11.551 6.12846L11.7644 5.44972L10.3334 4.99998ZM11.0667 2.66665V1.16665H9.9658L9.63572 2.21691L11.0667 2.66665ZM12.9334 2.66665L14.3644 2.21691L14.0343 1.16665H12.9334V2.66665ZM13.6667 4.99998L12.2357 5.44972L12.449 6.12846L13.1096 6.39269L13.6667 4.99998ZM14 5.13331L13.443 6.52603L13.5142 6.55452L13.588 6.5756L14 5.13331ZM15.4 5.73331L16.1718 4.44707L16.1581 4.43886L16.1442 4.43095L15.4 5.73331ZM15.7334 5.93331L14.9616 7.21955L15.6979 7.6613L16.4517 7.25016L15.7334 5.93331ZM17.9334 4.73331L18.994 3.67265L18.2004 2.87903L17.2151 3.41647L17.9334 4.73331ZM19.2667 6.06665L20.5835 6.78492L21.121 5.79961L20.3274 5.00599L19.2667 6.06665ZM18.0667 8.26665L16.7499 7.54837L16.3387 8.30214L16.7805 9.03839L18.0667 8.26665ZM18.2667 8.59998L19.5691 7.85577L19.5612 7.84192L19.5529 7.82823L18.2667 8.59998ZM18.8667 9.99998L20.3376 9.7058L20.3257 9.64627L20.309 9.5879L18.8667 9.99998ZM18.9334 10.3333L17.4625 10.6275L17.6382 11.506L18.495 11.7678L18.9334 10.3333ZM21.3334 11.0666H22.8334V9.95652L21.7717 9.63212L21.3334 11.0666ZM22.3257 8.37194L20.4591 7.77194L19.541 10.628L21.4077 11.228L22.3257 8.37194ZM21.3928 8.64289L20.9928 7.64289L18.2073 8.75707L18.6073 9.75707L21.3928 8.64289ZM20.9207 8.91113L21.8541 7.1778L19.2127 5.7555L18.2793 7.48883L20.9207 8.91113ZM21.875 7.13747C22.3484 6.19069 22.2077 4.95301 21.394 4.13932L19.2727 6.26064C19.1902 6.17816 19.1587 6.09006 19.1496 6.02814C19.1409 5.96946 19.145 5.88928 19.1917 5.79583L21.875 7.13747ZM21.394 4.13932L19.794 2.53932L17.6727 4.66064L19.2727 6.26064L21.394 4.13932ZM19.794 2.53932C18.9803 1.72563 17.7427 1.58495 16.7959 2.05834L18.1375 4.74162C18.0441 4.78835 17.9639 4.79248 17.9052 4.78378C17.8433 4.77461 17.7552 4.74312 17.6727 4.66064L19.794 2.53932ZM16.7556 2.07927L15.0222 3.01261L16.4445 5.65402L18.1779 4.72069L16.7556 2.07927ZM16.2905 2.9406L15.2905 2.5406L14.1763 5.32603L15.1763 5.72603L16.2905 2.9406ZM16.1614 3.4743L15.5614 1.60763L12.7053 2.52566L13.3053 4.39233L16.1614 3.4743ZM15.5564 1.5923C15.24 0.643033 14.3099 -0.166687 13.1334 -0.166687V2.83331C13.0036 2.83331 12.9066 2.78674 12.8493 2.74313C12.7971 2.70334 12.7437 2.64119 12.7103 2.54099L15.5564 1.5923ZM13.1334 -0.166687H10.8667V2.83331H13.1334V-0.166687ZM10.8667 -0.166687C9.68007 -0.166687 8.62439 0.689601 8.44845 1.92118L11.4183 2.34545C11.3757 2.64369 11.12 2.83331 10.8667 2.83331V-0.166687ZM8.50533 1.6743L7.90533 3.54097L10.7614 4.45899L11.3614 2.59233L8.50533 1.6743ZM9.08678 2.52039C8.47933 2.62163 7.96955 2.82899 7.49496 3.11374L9.03845 5.68622C9.23053 5.57097 9.38741 5.51166 9.57997 5.47957L9.08678 2.52039ZM8.97786 3.07927L7.24452 2.14594L5.82222 4.78735L7.55556 5.72069L8.97786 3.07927ZM7.20419 2.12501C6.25742 1.65162 5.01974 1.79229 4.20605 2.60599L6.32737 4.72731C6.24489 4.80978 6.15679 4.84128 6.09486 4.85045C6.03618 4.85914 5.95601 4.85502 5.86255 4.80829L7.20419 2.12501ZM4.20605 2.60599L2.60605 4.20599L4.72737 6.32731L6.32737 4.72731L4.20605 2.60599ZM2.60605 4.20599C1.79235 5.01968 1.65168 6.25736 2.12507 7.20413L4.80835 5.86249C4.85508 5.95595 4.85921 6.03612 4.85051 6.0948C4.84134 6.15673 4.80984 6.24483 4.72737 6.32731L2.60605 4.20599ZM2.13588 7.22534L3.00255 8.89201L5.6642 7.50795L4.79753 5.84128L2.13588 7.22534ZM2.94066 7.64289C2.8635 7.83578 2.78849 8.04248 2.72368 8.2207C2.65516 8.40914 2.59684 8.56911 2.54066 8.70956L5.32609 9.82373C5.40324 9.63084 5.47826 9.42415 5.54306 9.24593C5.61159 9.05748 5.66991 8.89751 5.72609 8.75707L2.94066 7.64289ZM3.47436 7.8386L1.60769 8.4386L2.52572 11.2947L4.39239 10.6947L3.47436 7.8386ZM1.59237 8.44362C0.643096 8.76004 -0.166626 9.69008 -0.166626 10.8666H2.83337C2.83337 10.9965 2.7868 11.0935 2.74319 11.1507C2.7034 11.2029 2.64125 11.2563 2.54105 11.2897L1.59237 8.44362ZM-0.166626 10.8666V13.1333H2.83337V10.8666H-0.166626ZM-0.166626 13.1333C-0.166626 14.3536 0.695089 15.2824 1.72129 15.5756L2.54546 12.691C2.63833 12.7176 2.83337 12.8464 2.83337 13.1333H-0.166626ZM1.67436 15.5614L3.54103 16.1614L4.45905 13.3053L2.59239 12.7053L1.67436 15.5614ZM2.60733 15.2904L3.00733 16.2904L5.79276 15.1762L5.39276 14.1762L2.60733 15.2904ZM3.07933 15.0222L2.146 16.7555L4.78741 18.1778L5.72075 16.4445L3.07933 15.0222ZM2.12507 16.7958C1.65168 17.7426 1.79235 18.9803 2.60605 19.794L4.72737 17.6727C4.80984 17.7551 4.84134 17.8432 4.85051 17.9052C4.85921 17.9638 4.85508 18.044 4.80835 18.1375L2.12507 16.7958ZM2.60605 19.794L4.20605 21.394L6.32737 19.2726L4.72737 17.6727L2.60605 19.794ZM4.20605 21.394C5.01974 22.2077 6.25742 22.3483 7.20419 21.875L5.86255 19.1917C5.95601 19.1449 6.03618 19.1408 6.09486 19.1495C6.15679 19.1587 6.24489 19.1902 6.32737 19.2727L4.20605 21.394ZM7.24452 21.854L8.97786 20.9207L7.55556 18.2793L5.82222 19.2126L7.24452 21.854ZM7.70962 20.9927L8.70962 21.3927L9.82379 18.6073L8.82379 18.2073L7.70962 20.9927ZM7.83411 20.4446L8.43411 22.3779L11.2993 21.4887L10.6993 19.5554L7.83411 20.4446ZM8.44368 22.4077C8.76011 23.3569 9.69014 24.1666 10.8667 24.1666V21.1666C10.9965 21.1666 11.0935 21.2132 11.1508 21.2568C11.203 21.2966 11.2563 21.3588 11.2897 21.459L8.44368 22.4077ZM10.8667 24.1666H13.1334V21.1666H10.8667V24.1666ZM13.1334 24.1666C14.3099 24.1666 15.24 23.3569 15.5564 22.4077L12.7103 21.459C12.7437 21.3588 12.7971 21.2966 12.8493 21.2568C12.9066 21.2132 13.0036 21.1666 13.1334 21.1666V24.1666ZM15.566 22.3779L16.166 20.4446L13.3008 19.5554L12.7008 21.4887L15.566 22.3779ZM15.2905 21.3927L16.2905 20.9927L15.1763 18.2073L14.1763 18.6073L15.2905 21.3927ZM15.0222 20.9207L16.7556 21.854L18.1779 19.2126L16.4445 18.2793L15.0222 20.9207ZM16.7959 21.875C17.7427 22.3483 18.9803 22.2077 19.794 21.394L17.6727 19.2727C17.7552 19.1902 17.8433 19.1587 17.9052 19.1495C17.9639 19.1408 18.0441 19.1449 18.1375 19.1917L16.7959 21.875ZM19.794 21.394L21.394 19.794L19.2727 17.6727L17.6727 19.2727L19.794 21.394ZM21.394 19.794C22.2077 18.9803 22.3484 17.7426 21.875 16.7958L19.1917 18.1375C19.145 18.044 19.1409 17.9638 19.1496 17.9052C19.1587 17.8432 19.1902 17.7551 19.2727 17.6727L21.394 19.794ZM21.8541 16.7555L20.9207 15.0222L18.2793 16.4445L19.2127 18.1778L21.8541 16.7555ZM20.9928 16.2904L21.3928 15.2904L18.6073 14.1762L18.2073 15.1762L20.9928 16.2904ZM20.4446 16.1659L22.378 15.5659L21.4888 12.7007L19.5554 13.3007L20.4446 16.1659ZM22.4077 15.5563C23.357 15.2399 24.1667 14.3099 24.1667 13.1333H21.1667C21.1667 13.0035 21.2133 12.9065 21.2569 12.8492C21.2967 12.797 21.3588 12.7437 21.459 12.7103L22.4077 15.5563ZM24.1667 13.1333V10.8666H21.1667V13.1333H24.1667ZM24.1667 10.8666C24.1667 9.75481 23.4127 8.68167 22.2788 8.35769L21.4546 11.2423C21.3341 11.2078 21.2673 11.143 21.2354 11.0999C21.2051 11.0588 21.1667 10.9845 21.1667 10.8666H24.1667ZM20.895 11.4988L18.495 12.2321L19.3717 15.1012L21.7717 14.3678L20.895 11.4988ZM17.4625 13.3725L17.3958 13.7058L20.3376 14.2942L20.4042 13.9608L17.4625 13.3725ZM17.488 13.4091L16.888 14.8091L19.6454 15.9909L20.2454 14.5909L17.488 13.4091ZM16.9805 14.6282L16.7805 14.9616L19.3529 16.5051L19.5529 16.1717L16.9805 14.6282ZM16.7499 16.4516L17.9499 18.6516L20.5835 17.215L19.3835 15.015L16.7499 16.4516ZM18.206 16.8727L16.8727 18.206L18.994 20.3273L20.3274 18.994L18.206 16.8727ZM18.6517 17.9498L16.4517 16.7498L15.0151 19.3835L17.2151 20.5835L18.6517 17.9498ZM14.9616 16.7804L14.6283 16.9804L16.1718 19.5529L16.5051 19.3529L14.9616 16.7804ZM14.6558 16.9643C14.2828 17.1775 13.9271 17.3275 13.588 17.4244L14.4121 20.3089C15.0064 20.1391 15.584 19.8892 16.1442 19.569L14.6558 16.9643ZM13.7059 17.3958L13.3725 17.4624L13.9609 20.4042L14.2942 20.3375L13.7059 17.3958ZM12.2322 18.495L11.4988 20.895L14.3679 21.7716L15.1012 19.3716L12.2322 18.495ZM12.9334 19.8333H11.0667V22.8333H12.9334V19.8333ZM12.5012 20.895L11.7679 18.495L8.89885 19.3716L9.63218 21.7716L12.5012 20.895ZM10.6276 17.4624L10.2942 17.3958L9.70586 20.3375L10.0392 20.4042L10.6276 17.4624ZM10.5909 17.4879L9.19092 16.8879L8.00916 19.6454L9.40916 20.2454L10.5909 17.4879ZM9.37179 16.9804L9.03845 16.7804L7.49496 19.3529L7.82829 19.5529L9.37179 16.9804ZM7.54843 16.7498L5.34843 17.9498L6.78499 20.5835L8.98499 19.3835L7.54843 16.7498ZM7.12737 18.206L5.79403 16.8727L3.67271 18.994L5.00605 20.3273L7.12737 18.206ZM6.05022 18.6516L7.25022 16.4516L4.61653 15.015L3.41653 17.215L6.05022 18.6516ZM7.21961 14.9616L7.01962 14.6282L4.44713 16.1717L4.64713 16.5051L7.21961 14.9616ZM7.03574 14.6558C6.82257 14.2827 6.67254 13.927 6.57566 13.5879L3.69109 14.4121C3.86087 15.0063 4.11085 15.5839 4.43101 16.1442L7.03574 14.6558ZM6.60424 13.7058L6.53758 13.3725L3.59584 13.9608L3.6625 14.2942L6.60424 13.7058ZM5.50503 12.2321L3.10504 11.4988L2.22838 14.3678L4.62838 15.1012L5.50503 12.2321ZM4.16671 12.9333V11.0666H1.16671V12.9333H4.16671ZM3.08996 12.5057L5.35662 11.839L4.51012 8.96093L2.24346 9.6276L3.08996 12.5057ZM6.32609 10.9571L6.45942 10.6237L3.67399 9.50956L3.54066 9.84289L6.32609 10.9571ZM6.52192 10.4304C6.61711 10.0497 6.75985 9.71033 6.96907 9.34419L4.36434 7.85577C4.04023 8.42296 3.78297 9.01693 3.61149 9.70284L6.52192 10.4304ZM6.95295 9.37172L7.15295 9.03839L4.58047 7.4949L4.38047 7.82823L6.95295 9.37172ZM7.20017 7.57971L6.06684 5.37971L3.39991 6.75358L4.53325 8.95358L7.20017 7.57971ZM5.79403 7.12731L7.12737 5.79397L5.00605 3.67265L3.67271 5.00599L5.79403 7.12731ZM5.33132 6.04068L7.46465 7.24068L8.93543 4.62595L6.8021 3.42595L5.33132 6.04068ZM8.97178 7.21955L9.30512 7.01955L7.76163 4.44707L7.4283 4.64707L8.97178 7.21955ZM9.27758 7.03568C9.64373 6.82645 9.98309 6.68371 10.3638 6.58853L9.63624 3.6781C8.95032 3.84958 8.35635 4.10684 7.78917 4.43095L9.27758 7.03568ZM10.5571 6.52603L10.8905 6.39269L9.77629 3.60726L9.44295 3.7406L10.5571 6.52603ZM11.7644 5.44972L12.4977 3.11639L9.63572 2.21691L8.90238 4.55024L11.7644 5.44972ZM11.0667 4.16665H12.9334V1.16665H11.0667V4.16665ZM11.5024 3.11639L12.2357 5.44972L15.0977 4.55024L14.3644 2.21691L11.5024 3.11639ZM13.1096 6.39269L13.443 6.52603L14.5571 3.7406L14.2238 3.60726L13.1096 6.39269ZM13.588 6.5756C13.927 6.67248 14.2828 6.82251 14.6558 7.03568L16.1442 4.43095C15.584 4.11079 15.0064 3.86081 14.4121 3.69103L13.588 6.5756ZM14.6283 7.01955L14.9616 7.21955L16.5051 4.64707L16.1718 4.44707L14.6283 7.01955ZM16.4517 7.25016L18.6517 6.05016L17.2151 3.41647L15.0151 4.61647L16.4517 7.25016ZM16.8727 5.79397L18.206 7.12731L20.3274 5.00599L18.994 3.67265L16.8727 5.79397ZM17.9499 5.34837L16.7499 7.54837L19.3835 8.98492L20.5835 6.78492L17.9499 5.34837ZM16.7805 9.03839L16.9805 9.37172L19.5529 7.82823L19.3529 7.4949L16.7805 9.03839ZM16.9643 9.34419C17.1775 9.71723 17.3275 10.073 17.4244 10.4121L20.309 9.5879C20.1392 8.99366 19.8892 8.41606 19.5691 7.85577L16.9643 9.34419ZM17.3958 10.2942L17.4625 10.6275L20.4042 10.0391L20.3376 9.7058L17.3958 10.2942ZM18.495 11.7678L20.895 12.5012L21.7717 9.63212L19.3717 8.89878L18.495 11.7678ZM19.8334 11.0666V12.9333H22.8334V11.0666H19.8334Z" fill="#828282" mask="url(#path-3-inside-2_84_1631)"/>
</svg>
