<svg width="22" height="22" viewBox="0 0 22 22" fill="none" xmlns="http://www.w3.org/2000/svg">
<path d="M10.1511 2.41362C10.4444 1.63996 11.5545 1.63996 11.8488 2.41362L13.7463 7.66979C13.8125 7.84101 13.929 7.98813 14.0806 8.09173C14.2321 8.19532 14.4115 8.25052 14.5951 8.25004H19.2582C20.1199 8.25004 20.4957 9.32254 19.8183 9.84779L16.4999 12.8334C16.3513 12.9476 16.2427 13.1061 16.1896 13.2859C16.1366 13.4657 16.1419 13.6577 16.2048 13.8344L17.4166 18.9705C17.7118 19.7955 16.7566 20.504 16.0343 19.9962L11.527 17.1362C11.3727 17.0277 11.1886 16.9695 10.9999 16.9695C10.8113 16.9695 10.6272 17.0277 10.4729 17.1362L5.96561 19.9962C5.2442 20.504 4.28811 19.7945 4.58328 18.9705L5.79512 13.8344C5.85798 13.6577 5.86328 13.4657 5.81025 13.2859C5.75722 13.1061 5.64859 12.9476 5.49995 12.8334L2.18161 9.84779C1.50328 9.32254 1.88095 8.25004 2.74078 8.25004H7.40386C7.58747 8.25065 7.76693 8.1955 7.9185 8.09189C8.07007 7.98828 8.18661 7.84109 8.2527 7.66979L10.1502 2.41362H10.1511Z" stroke="#828282" stroke-width="1.5" stroke-linecap="round" stroke-linejoin="round"/>
</svg>
