<svg width="24" height="24" viewBox="0 0 24 24" fill="none" xmlns="http://www.w3.org/2000/svg">
<path d="M14.25 0C14.4489 0 14.6397 0.0790176 14.7803 0.21967C14.921 0.360322 15 0.551088 15 0.75C15 0.948912 15.079 1.13968 15.2197 1.28033C15.3603 1.42098 15.5511 1.5 15.75 1.5C15.9489 1.5 16.1397 1.57902 16.2803 1.71967C16.421 1.86032 16.5 2.05109 16.5 2.25V3C16.5 3.19891 16.421 3.38968 16.2803 3.53033C16.1397 3.67098 15.9489 3.75 15.75 3.75H8.25C8.05109 3.75 7.86032 3.67098 7.71967 3.53033C7.57902 3.38968 7.5 3.19891 7.5 3V2.25C7.5 2.05109 7.57902 1.86032 7.71967 1.71967C7.86032 1.57902 8.05109 1.5 8.25 1.5C8.44891 1.5 8.63968 1.42098 8.78033 1.28033C8.92098 1.13968 9 0.948912 9 0.75C9 0.551088 9.07902 0.360322 9.21967 0.21967C9.36032 0.0790176 9.55109 0 9.75 0L14.25 0Z" fill="#828282"/>
<path d="M4.5 3.75C4.5 3.55109 4.57902 3.36032 4.71967 3.21967C4.86032 3.07902 5.05109 3 5.25 3H6C6.19891 3 6.38968 2.92098 6.53033 2.78033C6.67098 2.63968 6.75 2.44891 6.75 2.25C6.75 2.05109 6.67098 1.86032 6.53033 1.71967C6.38968 1.57902 6.19891 1.5 6 1.5H5.25C4.65326 1.5 4.08097 1.73705 3.65901 2.15901C3.23705 2.58097 3 3.15326 3 3.75V21.75C3 22.3467 3.23705 22.919 3.65901 23.341C4.08097 23.7629 4.65326 24 5.25 24H18.75C19.3467 24 19.919 23.7629 20.341 23.341C20.7629 22.919 21 22.3467 21 21.75V3.75C21 3.15326 20.7629 2.58097 20.341 2.15901C19.919 1.73705 19.3467 1.5 18.75 1.5H18C17.8011 1.5 17.6103 1.57902 17.4697 1.71967C17.329 1.86032 17.25 2.05109 17.25 2.25C17.25 2.44891 17.329 2.63968 17.4697 2.78033C17.6103 2.92098 17.8011 3 18 3H18.75C18.9489 3 19.1397 3.07902 19.2803 3.21967C19.421 3.36032 19.5 3.55109 19.5 3.75V21.75C19.5 21.9489 19.421 22.1397 19.2803 22.2803C19.1397 22.421 18.9489 22.5 18.75 22.5H5.25C5.05109 22.5 4.86032 22.421 4.71967 22.2803C4.57902 22.1397 4.5 21.9489 4.5 21.75V3.75Z" fill="#828282"/>
<path d="M16.281 11.781C16.4218 11.6401 16.5009 11.4491 16.5009 11.25C16.5009 11.0508 16.4218 10.8598 16.281 10.719C16.1401 10.5781 15.9491 10.499 15.75 10.499C15.5508 10.499 15.3598 10.5781 15.219 10.719L11.25 14.6895L9.53097 12.969C9.39014 12.8281 9.19913 12.749 8.99997 12.749C8.80081 12.749 8.6098 12.8281 8.46897 12.969C8.32814 13.1098 8.24902 13.3008 8.24902 13.5C8.24902 13.6991 8.32814 13.8901 8.46897 14.031L10.719 16.281C10.7886 16.3508 10.8714 16.4062 10.9625 16.444C11.0536 16.4818 11.1513 16.5013 11.25 16.5013C11.3486 16.5013 11.4463 16.4818 11.5374 16.444C11.6285 16.4062 11.7113 16.3508 11.781 16.281L16.281 11.781Z" fill="#828282"/>
</svg>
